<svg width="40" height="40" viewBox="0 0 40 40" fill="none" xmlns="http://www.w3.org/2000/svg">
<path fill-rule="evenodd" clip-rule="evenodd" d="M9.41276 19.7905C9.41276 20.4339 9.93248 20.9537 10.576 20.9537L18.6358 20.9619L18.6358 29.03C18.6358 29.6735 19.1555 30.1932 19.799 30.1932C20.4424 30.1932 20.9622 29.6735 20.9622 29.03L20.9622 20.9619L29.0303 20.9619C29.6737 20.9619 30.1934 20.4422 30.1934 19.7987C30.1934 19.1552 29.6737 18.6355 29.0303 18.6355L20.9622 18.6355L20.9622 10.5674C20.9622 9.92397 20.4424 9.40424 19.799 9.40424C19.1555 9.40424 18.6358 9.92397 18.6358 10.5674L18.6358 18.6355L10.5677 18.6355C9.94073 18.6355 9.41276 19.1635 9.41276 19.7905Z" fill="white"/>
</svg>
