<svg width="28" height="28" viewBox="0 0 28 28" fill="none" xmlns="http://www.w3.org/2000/svg">
<path fill-rule="evenodd" clip-rule="evenodd" d="M21.3622 23.1002C23.7173 23.0468 26.0326 23.7122 28 25.0077L24.2672 2.95245C22.5198 2.19636 20.6394 1.79542 18.7355 1.77295C14.028 1.77295 13.9685 3.49845 9.2645 3.49845C7.38536 3.48743 5.51929 3.18518 3.73275 2.60245L0 24.6577C2.09909 25.5392 4.36191 25.9634 6.63775 25.9019C13.0515 25.9019 14.9485 23.1019 21.3622 23.1019V23.1002ZM5.13625 4.7952C6.49271 5.09038 7.87632 5.24288 9.2645 5.2502C11.0873 5.28577 12.8989 4.95736 14.5933 4.2842C15.9071 3.7489 17.3172 3.49035 18.7355 3.5247C20.0885 3.54299 21.4298 3.77875 22.708 4.22295L25.718 22.0082C24.3079 21.5691 22.8391 21.3473 21.3622 21.3502C18.6536 21.3638 15.9699 21.869 13.4418 22.8412C11.272 23.6869 8.9664 24.1305 6.63775 24.1502C5.05921 24.1603 3.48722 23.9464 1.96875 23.515L5.13625 4.7952ZM7.875 9.6252C7.875 8.6587 8.6585 7.8752 9.625 7.8752C10.5915 7.8752 11.375 8.6587 11.375 9.6252C11.375 10.5917 10.5915 11.3752 9.625 11.3752C8.6585 11.3752 7.875 10.5917 7.875 9.6252ZM18.375 14.8752C18.375 13.9087 19.1585 13.1252 20.125 13.1252C21.0915 13.1252 21.875 13.9087 21.875 14.8752C21.875 15.8417 21.0915 16.6252 20.125 16.6252C19.1585 16.6252 18.375 15.8417 18.375 14.8752ZM6.125 18.3752C6.125 17.4087 6.9085 16.6252 7.875 16.6252C8.8415 16.6252 9.625 17.4087 9.625 18.3752C9.625 19.3417 8.8415 20.1252 7.875 20.1252C6.9085 20.1252 6.125 19.3417 6.125 18.3752Z" fill="white"/>
</svg>
