<svg width="20" height="21" viewBox="0 0 20 21" fill="none" xmlns="http://www.w3.org/2000/svg">
<path fill-rule="evenodd" clip-rule="evenodd" d="M4.74125 19.5C3.11565 19.5439 1.49935 19.2409 0 18.6113L2.66625 2.86126C3.48641 3.12908 4.33154 3.31335 5.18875 3.41126C5.08025 3.81563 5.02025 4.23146 5.01 4.65001C4.55974 4.59534 4.1122 4.52026 3.66875 4.42501L1.40625 17.7963C2.49087 18.1044 3.61372 18.2572 4.74125 18.25C6.40457 18.2359 8.05143 17.9191 9.60125 17.315C11.4071 16.6206 13.324 16.2598 15.2587 16.25C16.3137 16.2479 17.3628 16.4064 18.37 16.72L16.22 4.01626C15.7849 3.86955 15.3401 3.75343 14.8888 3.66876C14.7881 3.20114 14.6201 2.75062 14.39 2.33126C15.404 2.44586 16.3957 2.70822 17.3337 3.11001L20 18.8625C18.5946 17.9376 16.9408 17.4628 15.2587 17.5013C10.6775 17.5013 9.3225 19.5013 4.74125 19.5013V19.5ZM10 1.00001C11.0055 0.962091 11.9813 1.34481 12.6929 2.05619C13.4045 2.76756 13.7876 3.74326 13.75 4.74876V9.75001L10 13.5L6.25 9.75001V4.74876C6.21242 3.74326 6.59547 2.76756 7.30708 2.05619C8.01869 1.34481 8.99451 0.962091 10 1.00001ZM7.5 4.74876V9.23251L10 11.7325L12.5 9.23251V4.74876C12.539 4.07464 12.2881 3.41599 11.8105 2.93864C11.3329 2.46129 10.6741 2.21072 10 2.25001C9.3259 2.21072 8.66713 2.46129 8.18954 2.93864C7.71195 3.41599 7.46105 4.07464 7.5 4.74876ZM10 3.18751C9.13705 3.18751 8.4375 3.88706 8.4375 4.75001C8.4375 5.61295 9.13705 6.31251 10 6.31251C10.8629 6.31251 11.5625 5.61295 11.5625 4.75001C11.5628 4.33551 11.3983 3.93789 11.1052 3.64479C10.8121 3.35169 10.4145 3.18718 10 3.18751Z" fill="#777777"/>
</svg>
