<svg width="28" height="28" viewBox="0 0 28 28" fill="none" xmlns="http://www.w3.org/2000/svg">
<path fill-rule="evenodd" clip-rule="evenodd" d="M26 13.2H22.4C22.0218 9.16969 18.8303 5.97825 14.8 5.6V2H13.2V5.6C9.16969 5.97825 5.97825 9.16969 5.6 13.2H2V14.8H5.6C5.97825 18.8303 9.16969 22.0218 13.2 22.4V26H14.8V22.4C18.8303 22.0218 22.0218 18.8303 22.4 14.8H26V13.2ZM14.0001 20.8806C10.2004 20.8806 7.12007 17.8003 7.12007 14.0006C7.12007 10.2009 10.2004 7.12058 14.0001 7.12058C17.7998 7.12058 20.8801 10.2009 20.8801 14.0006C20.8765 17.7988 17.7983 20.8771 14.0001 20.8806V20.8806ZM18 13.9998C18 16.209 16.2091 17.9998 14 17.9998C11.7908 17.9998 9.99996 16.209 9.99996 13.9998C9.99996 11.7907 11.7908 9.99983 14 9.99983C16.2091 9.99983 18 11.7907 18 13.9998Z" fill="black" fill-opacity="0.87"/>
</svg>
