<svg width="28" height="28" viewBox="0 0 28 28" fill="none" xmlns="http://www.w3.org/2000/svg">
<path fill-rule="evenodd" clip-rule="evenodd" d="M10.5472 18.3227C10.7143 18.1521 10.8558 17.9582 10.9673 17.747C10.9393 17.5722 10.8723 17.4059 10.7713 17.2605C10.5779 16.956 10.4277 16.6262 10.325 16.2805C10.08 14.6565 9.0265 14.0195 7.97825 12.1295C5.992 8.61199 5.54925 8.23749 5.42675 7.79474C4.73375 5.25024 7.35175 4.38574 8.98275 6.36674C9.52175 6.99849 10.3758 8.00299 10.7118 8.40899C11.3033 9.12999 11.9717 9.92274 12.5177 10.6665C12.7365 10.9622 12.915 11.1862 13.0603 11.3577C13.0603 11.3577 12.747 10.0767 12.7312 10.0277C12.3217 8.96899 11.9262 7.76149 11.3138 6.25474C10.9259 5.44271 10.6662 4.57552 10.5437 3.68399C10.4712 3.11748 10.735 2.56055 11.2193 2.25774C11.599 2.03364 12.0331 1.91859 12.474 1.92524C13.1991 1.90425 13.8881 2.24125 14.3167 2.82649C14.5931 3.24124 14.8209 3.68632 14.9957 4.15299L15.2425 4.63424C15.33 4.88974 15.4017 5.08924 15.4857 5.28524C15.498 5.31674 15.3528 5.08224 16.8315 8.21299C16.8128 7.55599 16.7484 6.90108 16.639 6.25299C16.3617 5.37173 16.2356 4.44985 16.2662 3.52649C16.5279 2.53806 17.4507 1.8716 18.4712 1.93399C18.5613 1.93446 18.6513 1.93972 18.7407 1.94974C19.3907 2.00027 19.9678 2.38456 20.265 2.96474C20.6557 3.92423 20.892 4.93957 20.965 5.97299C21.0087 6.33174 21.1085 6.84799 21.2275 7.43424L21.315 7.87524C21.4585 8.57699 21.5775 9.17549 21.6562 9.73374L21.7682 10.8992L21.8452 10.6052C21.9633 10.2128 22.0453 9.81036 22.0902 9.40299C22.1506 8.67637 22.133 7.94537 22.0377 7.22249C21.9018 6.55027 22.1958 5.86405 22.7762 5.49874C23.0835 5.34079 23.4231 5.25575 23.7685 5.25024C24.4161 5.25529 25.0349 5.51874 25.4873 5.98206C25.9398 6.44538 26.1885 7.07021 26.1782 7.71774C26.2646 9.5161 26.1619 11.3186 25.872 13.0955C25.6684 13.9251 25.6528 14.7896 25.8265 15.626L25.8965 15.8692C25.9752 16.1142 26.0365 16.319 26.103 16.5815C26.1565 17.9364 26.1103 19.2934 25.9647 20.6415C25.9528 21.3143 25.9002 21.9858 25.8072 22.6522C25.735 23.1271 25.6999 23.6069 25.7022 24.0872C25.9676 25.1019 26.4895 26.0311 27.2177 26.7857C27.5088 27.1702 27.7703 27.5762 28 28.0002H26.74C26.215 26.7682 24.7135 25.594 24.6172 24.1502C24.6096 23.6326 24.6448 23.1151 24.7222 22.6032C24.8134 21.9524 24.866 21.2968 24.8797 20.6397C24.8797 19.1697 25.0932 17.0382 25.0372 16.8002C24.9874 16.5997 24.9313 16.4006 24.8692 16.2035C24.832 16.0953 24.7993 15.9855 24.7712 15.8745C24.5556 14.9017 24.5652 13.8925 24.7992 12.924C25.0862 11.2856 25.1433 9.61518 24.969 7.96099C24.9235 7.49724 24.5717 6.30024 23.7685 6.30024C23.5977 6.28662 23.4277 6.3344 23.289 6.43499C23.1018 6.7054 23.0394 7.04303 23.1175 7.36249C23.2201 8.063 23.2394 8.77318 23.1752 9.47824C23.1284 9.92691 23.0405 10.3704 22.9127 10.803C22.848 11.0532 22.7937 11.2632 22.7465 11.4785L22.694 11.8145C22.6763 11.9662 22.6411 12.1154 22.589 12.259C22.4528 12.6481 22.0877 12.9104 21.6755 12.9152C21.231 12.9415 20.9282 12.6667 20.8005 12.014C20.7466 11.6943 20.711 11.3718 20.6937 11.048C20.6644 10.6526 20.6242 10.2581 20.573 9.86499C20.4752 9.21958 20.359 8.57707 20.2247 7.93824C20.1022 7.31349 19.936 6.57324 19.8835 6.05524C19.8171 5.12883 19.6087 4.21813 19.2657 3.35499C19.1407 3.11846 18.9011 2.9645 18.634 2.94899C18.389 2.94899 17.5385 2.96649 17.3355 3.61049C17.2433 3.99712 17.2313 4.39857 17.3005 4.78999C17.4755 6.17249 17.6435 7.02299 17.801 8.40724C18.1107 11.1127 18.7897 11.0847 18.3995 11.8022C18.3218 11.9404 18.1859 12.0362 18.0296 12.0627C17.8733 12.0892 17.7134 12.0436 17.5945 11.9387C17.0945 11.206 16.6833 10.4165 16.3695 9.58674C15.9415 8.35526 15.4461 7.14827 14.8855 5.97124C14.4679 5.06285 13.9707 4.1932 13.3997 3.37249C13.1865 3.07946 12.8394 2.91418 12.4775 2.93324C11.9461 2.87384 11.4669 3.25593 11.4065 3.78724C11.8497 5.25432 12.3845 6.69215 13.0077 8.09224L14.1102 11.0497C14.3727 11.6552 14.5775 12.672 13.5345 12.6335C13.1792 12.567 12.8415 12.5582 11.8405 11.2107C11.6953 11.0182 9.4535 8.19199 9.28375 7.92424C8.83782 7.07768 7.99606 6.51212 7.04375 6.41924C5.47925 6.41924 6.67275 7.75449 8.94425 11.6605C9.22017 12.1379 9.52525 12.5979 9.85775 13.0377L10.3477 13.7325C10.8702 14.4438 11.2304 15.261 11.403 16.1265C11.4273 16.2435 11.4729 16.3551 11.5377 16.4555L11.8055 16.921C12.0754 17.2943 12.1261 17.783 11.9385 18.2037C11.8103 18.4431 11.654 18.6663 11.473 18.8687C11.2524 19.1469 10.9243 19.3186 10.57 19.3412C10.0466 19.2623 9.53326 19.1274 9.03875 18.9387C7.59675 18.4277 7.553 18.545 7.23275 18.1687C6.90054 17.727 6.45483 17.3835 5.943 17.1747C5.60243 17.0668 5.24838 17.0074 4.89125 16.998C4.64975 16.9805 3.325 17.558 3.556 18.118C3.654 18.181 4.396 18.7305 4.89125 19.0437C5.61225 19.5337 5.32 20.1392 6.8145 20.8252C8.07475 21.3629 9.28518 22.0106 10.4317 22.7607C11.0407 23.1282 11.725 23.4467 12.3987 23.9402C15.3737 26.1067 16.2085 24.9867 17.4002 27.638L17.5035 27.8655L17.311 28.0002H16.4518C15.5155 26.455 15.8357 26.8767 13.7357 25.951C12.7889 25.46 11.8805 24.8984 11.018 24.271C9.54752 23.2633 7.97491 22.4133 6.32625 21.7352C5.40046 21.4492 4.62619 20.8071 4.17375 19.9502C3.59649 19.5961 3.04924 19.1951 2.5375 18.7515C2.1245 18.3315 2.38875 17.0942 3.2725 16.5115C3.72608 16.155 4.28637 15.9615 4.86325 15.962C5.38483 15.9383 5.90522 16.0297 6.3875 16.2297C6.98858 16.5393 7.52123 16.9666 7.95375 17.4862C8.45075 17.4967 9.8175 18.195 10.5472 18.321V18.3227Z" fill="white"/>
</svg>
