<svg width="28" height="28" viewBox="0 0 28 28" fill="none" xmlns="http://www.w3.org/2000/svg">
<path fill-rule="evenodd" clip-rule="evenodd" d="M27.5118 7.01242C27.8327 6.68734 28.0082 6.24612 27.9983 5.78943C27.9884 5.33274 27.7939 4.89954 27.4593 4.58867L24.9865 2.11417C24.6756 1.77947 24.2424 1.585 23.7857 1.5751C23.329 1.56521 22.8878 1.74075 22.5628 2.06167L4.97176 19.6527L1.89876 26.8224C1.79381 27.0667 1.84847 27.3504 2.03669 27.5382C2.22491 27.726 2.50864 27.7801 2.75276 27.6747L9.92251 24.6052L24.9848 9.53942L27.5118 7.01242ZM4.59201 24.9832L5.56151 22.7187L6.85651 24.0137L4.59201 24.9832ZM8.68351 23.3662L6.21251 20.8899L20.2248 6.87592L22.6993 9.35217L8.68351 23.3662ZM23.9365 8.11317L21.462 5.63867L23.3695 3.73117C23.4699 3.63061 23.6062 3.5741 23.7484 3.5741C23.8905 3.5741 24.0268 3.63061 24.1273 3.73117L25.844 5.44617C25.9451 5.54668 26.0019 5.68336 26.0019 5.82592C26.0019 5.96848 25.9451 6.10515 25.844 6.20567L23.9365 8.11317Z" fill="white"/>
</svg>
