<svg width="50" height="50" viewBox="0 0 50 50" fill="none" xmlns="http://www.w3.org/2000/svg">
<path fill-rule="evenodd" clip-rule="evenodd" d="M26.5625 3.75C13.9635 3.75 3.75 13.9635 3.75 26.5625C3.75 39.1615 13.9635 49.375 26.5625 49.375C39.1615 49.375 49.375 39.1615 49.375 26.5625C49.375 13.9635 39.1615 3.75 26.5625 3.75V3.75ZM26.5625 46.25C15.6894 46.25 6.875 37.4356 6.875 26.5625C6.875 15.6894 15.6894 6.875 26.5625 6.875C37.4356 6.875 46.25 15.6894 46.25 26.5625C46.2379 37.4306 37.4306 46.2379 26.5625 46.25ZM28.125 25H37.5V28.125H28.125V37.5H25V28.125H15.625V25H25V15.625H28.125V25Z" fill="#777777"/>
</svg>
