<svg width="20" height="20" viewBox="0 0 20 20" fill="none" xmlns="http://www.w3.org/2000/svg">
<path d="M3.75 5.00005H2.5V3.75005H3.75V5.00005ZM17.5 5.00005H16.25V6.25005H17.5V5.00005ZM13.75 7.10505V15.0976L9.375 19.4851L5 15.0976V7.10505C5 4.6813 6.95875 3.75005 9.375 3.75005C11.7912 3.75005 13.75 4.6813 13.75 7.10505ZM12.5 7.10505C12.5 6.58505 12.5 5.00005 9.375 5.00005C6.25 5.00005 6.25 6.58505 6.25 7.10505V14.5826L9.375 17.7138L12.5 14.5826V7.10505ZM11.25 9.37505C11.25 9.74589 11.14 10.1084 10.934 10.4167C10.728 10.7251 10.4351 10.9654 10.0925 11.1073C9.74992 11.2492 9.37292 11.2864 9.00921 11.214C8.64549 11.1417 8.3114 10.9631 8.04917 10.7009C7.78695 10.4387 7.60837 10.1046 7.53603 9.74085C7.46368 9.37713 7.50081 9.00013 7.64273 8.65752C7.78464 8.31491 8.02496 8.02208 8.33331 7.81605C8.64165 7.61002 9.00416 7.50005 9.375 7.50005C9.87228 7.50005 10.3492 7.6976 10.7008 8.04923C11.0525 8.40086 11.25 8.87777 11.25 9.37505ZM10 9.36755C10 9.24394 9.96334 9.1231 9.89467 9.02032C9.82599 8.91754 9.72838 8.83743 9.61418 8.79013C9.49997 8.74282 9.37431 8.73045 9.25307 8.75456C9.13183 8.77868 9.02047 8.8382 8.93306 8.92561C8.84565 9.01302 8.78612 9.12438 8.76201 9.24562C8.73789 9.36686 8.75027 9.49253 8.79758 9.60673C8.84488 9.72093 8.92499 9.81855 9.02777 9.88722C9.13055 9.9559 9.25139 9.99255 9.375 9.99255C9.54076 9.99255 9.69973 9.92671 9.81694 9.8095C9.93415 9.69228 10 9.53331 10 9.36755ZM16.875 1.2738C15.325 1.2738 14.0463 1.8188 13.8013 3.1838C14.2944 3.56945 14.7026 4.0529 15 4.6038V3.6688C15 3.3563 15 2.52255 16.875 2.52255C18.75 2.52255 18.75 3.35505 18.75 3.6688V8.9513L16.875 10.8313L15 8.9513V10.7213L16.875 12.6013L20 9.4688V3.6688C20 1.9388 18.6 1.2738 16.875 1.2738V1.2738ZM1.25 7.70005V2.42005C1.25 2.1063 1.25 1.2738 3.125 1.2738C5 1.2738 5 2.1063 5 2.42005V3.15005C5.38469 2.86471 5.80489 2.63066 6.25 2.4538V2.42005C6.25 0.687554 4.85 0.0238037 3.125 0.0238037C1.4 0.0238037 0 0.687554 0 2.42005V8.2188L3.125 11.3501L3.75 10.7251V8.95505L3.125 9.5813L1.25 7.70005Z" fill="#777777"/>
</svg>
